<svg xmlns="http://www.w3.org/2000/svg" width="181" height="16" viewBox="0 0 181 16" fill="none">
    <path d="M0.292893 7.29289C-0.0976311 7.68342 -0.0976311 8.31658 0.292893 8.70711L6.65685 15.0711C7.04738 15.4616 7.68054 15.4616 8.07107 15.0711C8.46159 14.6805 8.46159 14.0474 8.07107 13.6569L2.41421 8L8.07107 2.34315C8.46159 1.95262 8.46159 1.31946 8.07107 0.928932C7.68054 0.538408 7.04738 0.538408 6.65685 0.928932L0.292893 7.29289ZM1 9H2V7H1V9ZM6 9H8V7H6V9ZM12 9H14V7H12V9ZM18 9H20V7H18V9ZM24 9H26V7H24V9ZM30 9H32V7H30V9ZM36 9H38V7H36V9ZM42 9H44V7H42V9ZM48 9H50V7H48V9ZM54 9H56V7H54V9ZM60 9H62V7H60V9ZM66 9H68V7H66V9ZM72 9H74V7H72V9ZM78 9H80V7H78V9ZM84 9H86V7H84V9ZM90 9H92V7H90V9ZM96 9H98V7H96V9ZM102 9H104V7H102V9ZM108 9H110V7H108V9ZM114 9H116V7H114V9ZM120 9H122V7H120V9ZM126 9H128V7H126V9ZM132 9H134V7H132V9ZM138 9H140V7H138V9ZM144 9H146V7H144V9ZM150 9H152V7H150V9ZM156 9H158V7H156V9ZM162 9H164V7H162V9ZM168 9H170V7H168V9ZM174 9H176V7H174V9ZM180 9H181V7H180V9Z" fill="black"/>
</svg>