<svg xmlns="http://www.w3.org/2000/svg" width="181" height="16" viewBox="0 0 181 16" fill="none">
    <path d="M180.707 7.29289C181.098 7.68342 181.098 8.31658 180.707 8.70711L174.343 15.0711C173.953 15.4616 173.319 15.4616 172.929 15.0711C172.538 14.6805 172.538 14.0474 172.929 13.6569L178.586 8L172.929 2.34315C172.538 1.95262 172.538 1.31946 172.929 0.928932C173.319 0.538408 173.953 0.538408 174.343 0.928932L180.707 7.29289ZM180 9H179V7H180V9ZM175 9H173V7H175V9ZM169 9H167V7H169V9ZM163 9H161V7H163V9ZM157 9H155V7H157V9ZM151 9H149V7H151V9ZM145 9H143V7H145V9ZM139 9H137V7H139V9ZM133 9H131V7H133V9ZM127 9H125V7H127V9ZM121 9H119V7H121V9ZM115 9H113V7H115V9ZM109 9H107V7H109V9ZM103 9H101V7H103V9ZM97 9H95V7H97V9ZM91 9H89V7H91V9ZM85 9H83V7H85V9ZM79 9H77V7H79V9ZM73 9H71V7H73V9ZM67 9H65V7H67V9ZM61 9H59V7H61V9ZM55 9H53V7H55V9ZM49 9H47V7H49V9ZM43 9H41V7H43V9ZM37 9H35V7H37V9ZM31 9H29V7H31V9ZM25 9H23V7H25V9ZM19 9H17V7H19V9ZM13 9H11V7H13V9ZM6.99999 9H5V7H6.99999V9ZM0.999998 9H-4.76837e-06V7H0.999998V9Z" fill="black"/>
</svg>